HIERARCHY
ROOT Hips
{
	OFFSET -14.64140 90.27770 -84.91600
	CHANNELS 6 Xposition Yposition Zposition Zrotation Xrotation Yrotation
	JOINT Spine
	{
		OFFSET 0.00000 13.20850 -1.60436
		CHANNELS 3 Zrotation Xrotation Yrotation
		JOINT Spine1
		{
			OFFSET 0.00000 8.61716 0.00000
			CHANNELS 3 Zrotation Xrotation Yrotation
			JOINT Spine2
			{
				OFFSET 0.00000 8.61717 0.00000
				CHANNELS 3 Zrotation Xrotation Yrotation
				JOINT Spine3
				{
					OFFSET 0.00000 8.61717 0.00000
					CHANNELS 3 Zrotation Xrotation Yrotation
					JOINT Neck
					{
						OFFSET 0.00000 11.07920 1.10792
						CHANNELS 3 Zrotation Xrotation Yrotation
						JOINT Neck1
						{
							OFFSET 0.00000 7.08032 0.00000
							CHANNELS 3 Zrotation Xrotation Yrotation
							JOINT Head
							{
								OFFSET 0.00000 7.08031 0.00000
								CHANNELS 3 Zrotation Xrotation Yrotation
								End site
								{
									OFFSET 0.00000 0.00000 0.00000
								}
							}
						}
					}
					JOINT RightShoulder
					{
						OFFSET -0.01000 7.91373 5.19711
						CHANNELS 3 Zrotation Xrotation Yrotation
						JOINT RightArm
						{
							OFFSET -18.41580 0.00000 0.00000
							CHANNELS 3 Zrotation Xrotation Yrotation
							JOINT RightForeArm
							{
								OFFSET -29.11090 0.00000 0.00000
								CHANNELS 3 Zrotation Xrotation Yrotation
								JOINT RightHand
								{
									OFFSET -24.65040 0.00000 0.00000
									CHANNELS 3 Zrotation Xrotation Yrotation
									JOINT RightHandThumb1
									{
										OFFSET -5.35114 -0.85590 3.97906
										CHANNELS 3 Zrotation Xrotation Yrotation
										JOINT RightHandThumb2
										{
											OFFSET -4.52789 0.00000 0.00000
											CHANNELS 3 Zrotation Xrotation Yrotation
											JOINT RightHandThumb3
											{
												OFFSET -2.46976 0.00000 0.00000
												CHANNELS 3 Zrotation Xrotation Yrotation
												End site
												{
													OFFSET 0.00000 0.00000 0.00000
												}
											}
										}
									}
									JOINT RightHandIndex1
									{
										OFFSET -14.26970 0.00000 2.88139
										CHANNELS 3 Zrotation Xrotation Yrotation
										JOINT RightHandIndex2
										{
											OFFSET -5.48836 0.00000 0.00000
											CHANNELS 3 Zrotation Xrotation Yrotation
											JOINT RightHandIndex3
											{
												OFFSET -3.01859 0.00000 0.00000
												CHANNELS 3 Zrotation Xrotation Yrotation
												End site
												{
													OFFSET 0.00000 0.00000 0.00000
												}
											}
										}
									}
									JOINT RightHandMiddle1
									{
										OFFSET -14.26970 0.00000 -0.09147
										CHANNELS 3 Zrotation Xrotation Yrotation
										JOINT RightHandMiddle2
										{
											OFFSET -6.17441 0.00000 0.00000
											CHANNELS 3 Zrotation Xrotation Yrotation
											JOINT RightHandMiddle3
											{
												OFFSET -3.56743 0.00000 0.00000
												CHANNELS 3 Zrotation Xrotation Yrotation
												End site
												{
													OFFSET 0.00000 0.00000 0.00000
												}
											}
										}
									}
									JOINT RightHandRing1
									{
										OFFSET -12.69180 0.00000 -3.06433
										CHANNELS 3 Zrotation Xrotation Yrotation
										JOINT RightHandRing2
										{
											OFFSET -5.62556 0.00000 0.00000
											CHANNELS 3 Zrotation Xrotation Yrotation
											JOINT RightHandRing3
											{
												OFFSET -3.56744 0.00000 0.00000
												CHANNELS 3 Zrotation Xrotation Yrotation
												End site
												{
													OFFSET 0.00000 0.00000 0.00000
												}
											}
										}
									}
									JOINT RightHandPinky1
									{
										OFFSET -11.11390 0.00000 -6.03719
										CHANNELS 3 Zrotation Xrotation Yrotation
										JOINT RightHandPinky2
										{
											OFFSET -4.52789 0.00000 0.00000
											CHANNELS 3 Zrotation Xrotation Yrotation
											JOINT RightHandPinky3
											{
												OFFSET -2.46976 0.00000 0.00000
												CHANNELS 3 Zrotation Xrotation Yrotation
												End site
												{
													OFFSET 0.00000 0.00000 0.00000
												}
											}
										}
									}
								}
							}
						}
					}
					JOINT LeftShoulder
					{
						OFFSET 0.01000 7.91373 5.19711
						CHANNELS 3 Zrotation Xrotation Yrotation
						JOINT LeftArm
						{
							OFFSET 18.41580 0.00000 0.00000
							CHANNELS 3 Zrotation Xrotation Yrotation
							JOINT LeftForeArm
							{
								OFFSET 29.11090 0.00000 0.00000
								CHANNELS 3 Zrotation Xrotation Yrotation
								JOINT LeftHand
								{
									OFFSET 24.65040 0.00000 0.00000
									CHANNELS 3 Zrotation Xrotation Yrotation
									JOINT LeftHandThumb1
									{
										OFFSET 5.35114 -0.85590 3.97906
										CHANNELS 3 Zrotation Xrotation Yrotation
										JOINT LeftHandThumb2
										{
											OFFSET 4.52789 0.00000 0.00000
											CHANNELS 3 Zrotation Xrotation Yrotation
											JOINT LeftHandThumb3
											{
												OFFSET 2.46977 0.00000 0.00000
												CHANNELS 3 Zrotation Xrotation Yrotation
												End site
												{
													OFFSET 0.00000 0.00000 0.00000
												}
											}
										}
									}
									JOINT LeftHandIndex1
									{
										OFFSET 14.26970 0.00000 2.88139
										CHANNELS 3 Zrotation Xrotation Yrotation
										JOINT LeftHandIndex2
										{
											OFFSET 5.48836 0.00000 0.00000
											CHANNELS 3 Zrotation Xrotation Yrotation
											JOINT LeftHandIndex3
											{
												OFFSET 3.01859 0.00000 0.00000
												CHANNELS 3 Zrotation Xrotation Yrotation
												End site
												{
													OFFSET 0.00000 0.00000 0.00000
												}
											}
										}
									}
									JOINT LeftHandMiddle1
									{
										OFFSET 14.26970 0.00000 -0.09147
										CHANNELS 3 Zrotation Xrotation Yrotation
										JOINT LeftHandMiddle2
										{
											OFFSET 6.17440 0.00000 0.00000
											CHANNELS 3 Zrotation Xrotation Yrotation
											JOINT LeftHandMiddle3
											{
												OFFSET 3.56744 0.00000 0.00000
												CHANNELS 3 Zrotation Xrotation Yrotation
												End site
												{
													OFFSET 0.00000 0.00000 0.00000
												}
											}
										}
									}
									JOINT LeftHandRing1
									{
										OFFSET 12.69180 0.00000 -3.06433
										CHANNELS 3 Zrotation Xrotation Yrotation
										JOINT LeftHandRing2
										{
											OFFSET 5.62556 0.00000 0.00000
											CHANNELS 3 Zrotation Xrotation Yrotation
											JOINT LeftHandRing3
											{
												OFFSET 3.56744 0.00000 0.00000
												CHANNELS 3 Zrotation Xrotation Yrotation
												End site
												{
													OFFSET 0.00000 0.00000 0.00000
												}
											}
										}
									}
									JOINT LeftHandPinky1
									{
										OFFSET 11.11390 0.00000 -6.03719
										CHANNELS 3 Zrotation Xrotation Yrotation
										JOINT LeftHandPinky2
										{
											OFFSET 4.52789 0.00000 0.00000
											CHANNELS 3 Zrotation Xrotation Yrotation
											JOINT LeftHandPinky3
											{
												OFFSET 2.46976 0.00000 0.00000
												CHANNELS 3 Zrotation Xrotation Yrotation
												End site
												{
													OFFSET 0.00000 0.00000 0.00000
												}
											}
										}
									}
								}
							}
						}
					}
					JOINT pCube4
					{
						OFFSET 0.00000 10.91090 1.10792
						CHANNELS 3 Zrotation Xrotation Yrotation
						End site
						{
							OFFSET 0.00000 0.00000 0.00000
						}
					}
				}
			}
		}
	}
	JOINT RightUpLeg
	{
		OFFSET -9.98441 0.00000 0.00000
		CHANNELS 3 Zrotation Xrotation Yrotation
		JOINT RightLeg
		{
			OFFSET 0.00000 -42.11790 0.00000
			CHANNELS 3 Zrotation Xrotation Yrotation
			JOINT RightFoot
			{
				OFFSET 0.00000 -45.00020 -0.00001
				CHANNELS 3 Zrotation Xrotation Yrotation
				JOINT RightForeFoot
				{
					OFFSET 0.00000 -3.74820 0.00000
					CHANNELS 3 Zrotation Xrotation Yrotation
					JOINT RightToeBase
					{
						OFFSET 0.00000 0.06325 14.43120
						CHANNELS 3 Zrotation Xrotation Yrotation
						End site
						{
							OFFSET 0.00000 0.00000 0.00000
						}
					}
				}
			}
		}
	}
	JOINT LeftUpLeg
	{
		OFFSET 9.98441 0.00000 0.00000
		CHANNELS 3 Zrotation Xrotation Yrotation
		JOINT LeftLeg
		{
			OFFSET 0.00000 -42.11800 0.00000
			CHANNELS 3 Zrotation Xrotation Yrotation
			JOINT LeftFoot
			{
				OFFSET 0.00000 -45.00070 0.00000
				CHANNELS 3 Zrotation Xrotation Yrotation
				JOINT LeftForeFoot
				{
					OFFSET 0.00000 -3.74824 0.00000
					CHANNELS 3 Zrotation Xrotation Yrotation
					JOINT LeftToeBase
					{
						OFFSET 0.00000 0.06325 14.43110
						CHANNELS 3 Zrotation Xrotation Yrotation
						End site
						{
							OFFSET 0.00000 0.00000 0.00000
						}
					}
				}
			}
		}
	}
}
MOTION
Frames: 4
Frame Time: 0.050000
-0.038135577409801794 -0.04047305431308863 0.0408351749912892 0.03724152320416181 0.047253779899863346 0.042387711985482926 5.166863118324461 3.160566172348153 -2.2331778332106818 -0.8406373323098699 3.3809127457941965 0.39640052415080274 -0.7666941247904892 -0.9598920844230322 0.807134342665069 -0.49792539711751105 -0.3097842984419818 -0.3276324764044698 0.2645895890847952 11.32044508189669 -1.6360295682684076 0.3588653454581359 -0.6921599966093128 -3.934596943664722 1.1043197766268076 -17.336843303014323 -0.4229852926181026 -11.752843436535755 4.070377724638234 -16.53763322734598 80.68951691868257 -1.6006874020892328 13.909696741273105 23.363285106791444 1.432908465233062 83.29015928234686 9.658823698997898 -0.42978691726451884 -5.340779688905307 4.524681110360078 -0.16679689783378612 -1.5433030989645897 -0.042033208473613186 0.033532174784779364 -56.22458619809603 0.048667676334873775 0.0480713578253649 -56.25454990150872 -38.751139765168055 0.014599437976150105 -0.028159236215461993 -0.02587080583606752 0.010211422155600638 0.030032187876531998 0.010472737423248024 -0.023684675137870217 0.01913829188001065 -36.674655669943746 -0.006935850601913678 0.02968794067166034 -0.021539662719618224 -0.03224779545116887 -0.007207556993030769 0.022530460621179055 -0.00633316009141131 0.005243032756096365 -19.786371967503964 -0.024406310317160108 -0.02574941283368458 -0.004089530728236296 0.02467286875562358 0.048659495501949895 -0.013766019529638174 -0.04510228258353941 0.009561682244406422 24.08375550647831 -0.02831480142650934 0.029499798219505553 28.8567160067758 -0.025232602591681332 0.00840059842931943 28.885531174961788 -0.015244750237695425 -0.040489754931413435 10.81512107889668 2.603998741798541 13.475087779640567 -79.01360548114577 17.717011645085154 -13.279342238979346 -69.3852522550833 11.782457035466958 -95.31996307753941 -8.110559484725655 -9.340241308304792 5.95143695246863 -0.47097056588333097 0.08604730270597452 -8.13457492777158 0.017751201237397755 -0.03617000654057359 44.54421666354665 -0.011138700719442514 0.04972789675614344 44.530097578182385 12.48027470868282 -0.004832752549105216 -0.020269383016273047 -0.02597557344416695 0.03759538191898297 0.0020662444648709482 0.038717452686096 -0.01808711299715083 0.027633582009552578 11.155641018824282 -0.011717055765733538 -0.005788592141906463 0.01999496478871171 -0.022011145124167217 -0.01562805008357223 0.04857696205637093 0.016432699181345944 -0.04802273945618504 4.815466255689891 0.00806569322191189 -0.006537948139064806 -0.02987327341325177 0.03558999154344194 0.042498851809619306 0.00945821428841691 -0.01106876758232863 -0.047404769440312765 -5.594366820348238 0.013770164743134682 -0.03424226392628065 -6.7265269861271575 0.03870830678869476 0.03404567603866381 -6.7560585397291115 0.005282815094684326 -0.007897099636973402 0.04089334218121982 0.01758839046807608 -0.028001162740592764 8.052782500909617 3.462133036454315 -19.19968498971263 0.006506437166558411 10.425597107046013 0.018999947153466853 -5.6511710530751476 -15.660654433444462 3.233912849543654 -0.03652100317541577 -0.016600898386799692 0.01157590227989467 -0.017227476049732113 4.676442885938722 -0.025463989899980433 12.474268725040702 -8.216491663640058 6.851918794923423 0.00771947972539105 46.40949626132341 -0.03992604618068651 -4.362924296531134 -14.779898356567964 -3.814238014983898 0.006398327388533737 -0.043221855501608716 0.03185263111624139 -0.038896304503569436 -10.704168756195806 -0.033871610247216986 
0.0496396721980795 -0.017127117976772698 -0.004861550788388146 -0.026423249950983014 -0.021881072589678044 -0.015307360265825465 5.144787597670945 3.209732873779994 -2.2095492987800838 -0.872544788278922 3.3819625308114496 0.37743764205311686 -0.7665408707840236 -0.8660335628924766 0.7512661792072411 -0.4198743932428596 -0.31833265908332203 -0.31106311439171214 0.26213905739921534 11.230547636732426 -1.682429691207714 0.3796303438735076 -0.7846658548441628 -4.178369722038828 1.0756237684570369 -17.44937522830237 -0.36914621915481893 -11.656868252338322 4.045774366694286 -16.562721044184972 81.08521328344271 -2.211397239582135 13.070006070722124 23.528307893118967 1.5659996237071807 82.25840806620896 9.8727356311544 -0.47661742796626666 -5.562026045451663 4.535090849342062 -0.09089364578862666 -1.5874405788515478 0.022674916386944233 -0.01692173658094705 -56.23606929790743 -0.02478777775065156 -0.011903959280232017 -56.1951433042434 -38.73994149164721 -0.04294710183313928 0.04646294872548128 0.02614825760391552 -0.025795406959001028 0.009899703052530065 -0.005739065588671384 0.04129224005371941 -0.040558228749391335 -36.67163869684816 0.022534527271965064 -0.023350539044003336 -0.015552986975459652 -0.0456166807427909 -0.028705466764926184 0.049201444635534795 -0.029068040149294896 -0.027050657697057133 -19.767004867440814 0.04534981555648235 0.04469680228854054 -0.006217415325667006 0.02248777889838786 0.0012409704884581577 -0.017103116915327916 -0.024915300019653103 0.00819650450467509 24.07388409211179 0.04298363840074857 0.026486498263155387 28.908364028959216 -0.023480658536618047 0.012081066554868744 28.83518918269672 -0.028154510944131114 0.006891522352968458 10.713832756271337 2.5616190298905765 13.454959747811483 -79.19926459095986 17.303088514550275 -12.963546936472797 -71.67040740983771 11.91953903544104 -96.11242772870652 -8.069295920379002 -9.733108610101498 6.182309309183919 -0.4842547106405106 0.05641417327309972 -8.118363408014512 -0.02662138433807353 -0.006357689460083509 44.606003661195544 0.022660265270154467 0.024172906899346272 44.58677288446838 12.494380030163102 -0.04318690944387301 0.020085976975223987 0.023662562566812203 0.028838756802988853 -0.03869361485331724 0.03977917444074021 0.002346655736455549 0.0402454059405822 11.130705423151717 0.036439014867726605 0.015596138781076902 0.013597243366757253 -0.018189587629906218 3.4422281695836953e-06 -0.026083985200142063 0.003164883374766247 -0.010187869010768933 4.750875847479077 -0.04627598393370836 -0.005960097466642567 -0.04793896286694728 -0.011769458899012998 0.021404484384374912 -0.04011796821431808 0.014988220922014024 -0.007557389661062607 -5.589759129973435 0.0012487601734962202 -0.04591010531397051 -6.720975754008539 0.031671015308492985 0.018214424219850138 -6.695892021302121 0.019577805306454674 -0.008507065822313524 -0.002427570796982497 -0.002866863952942195 0.012267479462110214 8.056175230787384 3.492720890017321 -19.208184954182578 -0.01873806552096827 10.389872810638105 0.03871607146212733 -5.666728606740091 -15.702888275010128 3.2017979689196183 0.0459050289587762 0.02382940793327795 0.01733547423009147 0.03685041833215841 4.6864959862698 0.02809214612050323 12.461768090912429 -8.190773371372206 6.9248729092867265 0.03648390164309397 46.35456823203268 -0.048146306109716513 -4.315606799900157 -14.77420778782365 -3.827617356089487 0.044577228278446776 0.03178955166574119 -0.01366225409033317 0.043976456547183844 -10.788498028302712 -0.020566062991461794 
0.04254644906070673 0.030417199510227578 -0.015310043822147318 -0.04086426772439099 0.009846790075093356 -0.012685456861461733 5.177405889735816 3.2219684139458487 -2.255344568213501 -0.8919656519008022 3.429008822523889 0.3800436982184794 -0.7274371267799261 -0.8373451906956542 0.6891090716466807 -0.38566069217829896 -0.33096932128760287 -0.326357902849798 0.2677529649265206 11.147855635219075 -1.7817469405219841 0.39704106910010234 -0.7568263462120298 -4.209579492477667 1.1005152395605993 -17.46771594527317 -0.4093168016708432 -11.50406761110696 3.9728746472035468 -16.761421425824366 81.39277765268422 -2.001394523162286 11.685163233560932 23.614174569393892 1.5730789589015208 81.91408357992111 9.978815733405373 -0.4510373359515764 -5.705516605559897 4.552962577631724 -0.15232472608391376 -1.5583382334649594 0.02756346825152849 -0.027456178271321803 -56.23628247644895 -0.027427990347118264 0.021830497275075328 -56.2181210802236 -38.76810409473102 0.010529517654478945 0.012662556565837528 -0.004873726326297984 -0.00612409908872243 -0.04978776113640553 0.04586695081370972 -0.04765155298543303 -0.042082174978438885 -36.6782114282631 0.0171881362460755 0.026285578483301982 0.030678722364489125 -0.021481374755770444 0.035272247778679953 -0.008950143529962387 -0.013691563517484477 -0.0010047676715855272 -19.802099655244323 -0.04588013652457749 -0.014016865265466341 -0.01780238307334801 -0.005856605801219814 0.02579478671267889 0.043202248280467925 -0.02797728307382444 -0.046227264260298 24.082331194475397 -0.012171080437500165 -0.008900283988948775 28.871967333090303 -0.006524480376373589 -0.007922928854399396 28.894399581392317 -0.04847375811048353 0.010979368595212376 10.641701509172297 2.494264344052967 13.545496642126903 -79.28533475400133 17.101685639270592 -12.361812827323115 -73.95738133276987 11.721364661499408 -97.34467254321292 -8.560515578341448 -10.441643698474461 6.536839786276145 -0.519303588621596 0.08928636508599495 -8.1552795411482 0.006993260280740628 -0.03942946007649514 44.61177734262425 0.012682428189416606 0.006170709217141256 44.57798246536276 12.469186914061092 0.013667235385811598 -0.00244689400587881 -0.045190325621701624 0.01781975324819295 0.020856053587174923 0.039410657934100465 -0.04104840532523046 -0.04531846851729102 11.101229860873472 0.02895799339252487 0.01485154048716546 0.014564862915071575 -0.035760681889170774 -0.049026782880415155 -0.045011656586216114 -0.028126755526874988 0.02224409641027003 4.7939229397525365 -0.044291992959935904 0.040327985754621334 0.007632839059878583 0.011518743050416523 0.02771545023243204 0.021417095545690313 -0.011056946811228924 0.0375636962817944 -5.636977852223191 0.03675876224799517 -0.04271009381361798 -6.714605828733591 -0.016073582174069997 -0.03052854929814815 -6.701280992624079 0.011616909587089544 -0.03107119022176312 -0.047316502266770394 -0.03370026317775283 0.01334470508840102 8.082300017883606 3.4993477716654584 -19.20526973299192 0.006088717685969609 10.382954131767153 0.005898796472929587 -5.663555374949301 -15.646561390838142 3.1758394913317116 -0.013466634283437145 -0.018970235702447512 -0.014419194473181735 -0.003372302379709041 4.715227331795801 0.02278547583719981 12.492083682378611 -8.221677269668865 6.834453091219834 -0.017763940982683846 46.38607137376494 -0.028557352373808718 -4.306266133937092 -14.74634196453835 -3.8089598943117853 0.04952096237124018 0.019276683379946674 0.008798545284852981 -0.0013528721483552022 -10.791288141169039 0.02051251496771425 
0.0371447152895711 0.041997434115075866 0.030864980044793374 -0.010269142029758416 0.03432108233154473 0.01856920560749897 5.278340266131186 3.0743433857121727 -2.2619738682090036 -0.9196020519230523 3.4088499564529697 0.44307723104080327 -0.6949194189083586 -0.8610867728191223 0.6889284256676027 -0.3621301759259755 -0.34835866028877904 -0.36514110247443937 0.2492270724185731 11.145186591883247 -1.7622743986248945 0.3383903493542202 -0.7321901991395059 -3.9824397285587714 1.066886607328695 -17.41572812798305 -0.40256466852561335 -11.364146130112335 3.9046344196702 -17.075471082472962 82.02108974724725 -1.952213086540915 9.690622343682055 22.98330143764965 1.2828943561653285 81.75193054960218 9.620251471322494 -0.5233706596229603 -5.713006299360638 4.54514871880922 -0.1585681583108847 -1.565484747166693 0.021213084007224537 0.0349451848273624 -56.24217810651264 -0.020606782924541267 -0.0032924231573132116 -56.22592356650093 -38.735649142224645 -0.030755566191409157 -0.018260990585982927 -0.04467251278519402 0.0029369240690349553 0.017823656854595648 0.0013479857690454162 -0.021679527801302657 -0.037757928969429394 -36.7285689163447 -0.01719171492225267 -0.002991662752941419 -0.03802378523237897 0.0022396222319701425 -8.61039846396675e-05 0.029139227208576222 0.037660241479103476 0.03155421415712598 -19.790827321219254 0.024484059320104654 0.03138579185802171 -0.04761251275785038 -0.012170657079180075 -0.003476250591103379 -0.0016442069850884495 0.005938336067416944 -0.04220895098083464 24.05787891641226 0.009143021118935047 0.03259144358993973 28.851168587062837 0.03437911217831467 0.037239360653557686 28.82909002831077 -0.03138482679116399 -0.033541272190980895 10.624563707149253 2.558948397441553 13.826848635250395 -79.83950627043544 16.265672895830797 -11.28986577788871 -76.73273099335313 11.132443844608378 -98.75426397308962 -8.720167618351397 -11.268190109372505 6.7254717839963245 -0.4896436091750179 0.07711048064260206 -8.08813487877287 -0.04673407812977554 0.006105001799761926 44.56873218946968 -0.015508572623297846 0.01638309448870575 44.589998772652656 12.43270025201712 -0.012005316134327801 -0.03149589329127729 0.0012545007113231143 -0.046336569448707544 -0.031958774779281045 0.01058910843785646 0.04036456403455591 0.033927580828359394 11.105616428808563 -0.006677868043213265 0.030193851084427712 0.04270653929630644 0.009078163276298653 0.03190753972401695 0.022106061536661514 -0.04271772925378783 -0.008056479809276765 4.794046552062522 0.048689527781157385 -0.03799088420902362 -0.018422891087362187 0.009162850443396075 0.011500787183949772 0.0021762275128832257 0.03533497906986507 -0.019005310685663027 -5.609073497270751 0.023305672471014005 -0.048654269696788065 -6.706544260216922 0.003002408625362878 -0.004147038967430223 -6.728338554042437 0.01798521694510881 -0.029829862491835207 -0.0244689693331957 -0.014399330031488708 -0.024871792397294052 8.060391553252808 3.529969950641595 -19.237873469203745 0.026146449319891164 10.38742446799367 0.04308116202395751 -5.650701007644231 -15.636558448501718 3.1543936827171604 0.037153972353932176 0.037356041417796255 -0.027962336200257985 -0.01663637369693809 4.725646522660802 0.01024987044941785 12.420636790001833 -8.212042115427346 6.905103656320406 -0.01331993323442509 46.41970611815298 -0.0178414584024567 -4.351418351781308 -14.712455039985267 -3.8715344283889928 -0.03390849532555277 -0.009911819376227957 0.002800704492559537 0.0350504546277078 -10.77210367437823 0.01849616629123344 
